<?xml version="1.0" encoding="UTF-8" standalone="no"?>
<svg
   width="1000"
   height="1000"
   viewBox="0 0 1000 1000"
   version="1.1"
   id="svg23"
   sodipodi:docname="MSMD_glyphs_koruru_v1.svg"
   inkscape:version="1.4.2 (f4327f4, 2025-05-13)"
   xmlns:inkscape="http://www.inkscape.org/namespaces/inkscape"
   xmlns:sodipodi="http://sodipodi.sourceforge.net/DTD/sodipodi-0.dtd"
   xmlns="http://www.w3.org/2000/svg"
   xmlns:svg="http://www.w3.org/2000/svg"
   xmlns:rdf="http://www.w3.org/1999/02/22-rdf-syntax-ns#"
   xmlns:cc="http://creativecommons.org/ns#"
   xmlns:dc="http://purl.org/dc/elements/1.1/">
  <defs
     id="defs23" />
  <sodipodi:namedview
     id="namedview23"
     pagecolor="#ffffff"
     bordercolor="#000000"
     borderopacity="0.25"
     inkscape:showpageshadow="2"
     inkscape:pageopacity="0.0"
     inkscape:pagecheckerboard="0"
     inkscape:deskcolor="#d1d1d1"
     showguides="true"
     inkscape:zoom="0.4035"
     inkscape:cx="-95.415118"
     inkscape:cy="484.51053"
     inkscape:window-width="1920"
     inkscape:window-height="1009"
     inkscape:window-x="1912"
     inkscape:window-y="-8"
     inkscape:window-maximized="1"
     inkscape:current-layer="svg23" />
  <!-- MSMD / NWOR Glyph Template with Sample Glyphs -->
  <title
     id="title1">MSMD / NWOR Glyph Template with Samples</title>
  <desc
     id="desc1">Blank grid template plus koruru face outline and tuere eel curve.</desc>
  <!-- Background grid -->
  <!-- Centre guides -->
  <!-- Safe drawing margin (10% inset) -->
  <g
     id="g46"
     style="display:inline">
    <path
       style="fill:#9f3212;fill-opacity:1;stroke:none;stroke-width:4.0306;stroke-dasharray:none;stroke-opacity:1"
       d="m 491.99561,820.43738 c -60.2094,-12.64353 -103.60175,-34.54817 -137.18107,-69.24954 -40.33326,-41.68099 -61.59619,-98.86932 -59.71858,-160.61786 0.54961,-18.07505 2.04013,-25.38385 7.50502,-36.8011 20.23085,-42.26632 83.23835,-59.80355 143.17449,-39.85054 17.12972,5.70256 32.52776,13.9043 47.77725,25.44846 3.14268,2.37908 6.06008,4.32559 6.4831,4.32559 0.42302,0 3.81432,-2.31825 7.53622,-5.15166 8.80199,-6.7008 17.9969,-12.23467 29.2383,-17.59681 65.1752,-31.08854 143.2166,-12.9684 162.85354,37.81236 4.52691,11.70649 5.50419,20.26318 4.98456,43.64262 -0.69903,31.45133 -5.30503,54.99801 -15.94313,81.50418 -28.27201,70.44328 -87.79699,116.47153 -175.009,135.32734 -10.78407,2.33158 -15.18068,2.57612 -21.7007,1.20696 z"
       id="path45" />
    <path
       style="fill:#9f3212;fill-opacity:1;stroke:none;stroke-width:4.0306;stroke-dasharray:none;stroke-opacity:1"
       d="m 492.72271,514.98741 c -17.26814,-11.23253 -41.28215,-20.99369 -62.01592,-25.20807 -30.02891,-6.10371 -66.40492,-3.47181 -89.59621,6.48253 -4.87646,2.09311 -4.24787,3.13234 -6.81251,-11.26297 -6.09461,-34.20904 -8.52019,-73.40808 -6.15466,-99.4636 4.71383,-51.92139 19.387,-87.0615 53.23475,-127.48952 17.95327,-21.44353 34.09101,-36.13489 55.14097,-50.19883 21.89318,-14.62732 49.63964,-26.00491 63.46914,-26.02587 4.92112,-0.007 18.41552,3.32717 26.68242,6.59356 26.30992,10.39547 50.4477,26.75138 73.601,49.87251 41.55299,41.49525 61.7823,79.28814 69.73917,130.28847 1.72953,11.08555 1.9675,16.01075 2.00487,41.49374 0.0472,32.19822 -0.90394,43.15027 -6.68032,76.92127 -1.61755,9.45684 -2.13122,11.11021 -3.29234,10.59733 -27.93226,-12.33815 -66.14911,-14.5922 -100.95125,-5.95417 -17.98543,4.46407 -39.13652,13.63686 -53.91153,23.38033 l -7.15885,4.72095 z"
       id="path46" />
  </g>
  <!-- Sample Glyph: Koruru face outline -->
  <!-- Sample Glyph: Tuere eel curve -->
  <path
     style="display:inline;fill:#ffffff;fill-opacity:1;stroke:#000000;stroke-width:18.391;stroke-dasharray:none;stroke-opacity:1"
     d="m 500,729.39051 c -117.63518,-42.70318 -82.18348,-139.08257 0,-105.24231 82.18348,-33.84026 117.63518,62.53913 0,105.24231 z"
     id="path25"
     sodipodi:nodetypes="ccc"
     inkscape:label="tongue" />
  <path
     style="baseline-shift:baseline;display:inline;overflow:visible;enable-background:accumulate;stop-color:#000000;stop-opacity:1;opacity:1;stroke:#982020;stroke-opacity:1;stroke-width:4.6;stroke-dasharray:none"
     d="m 500,162.72656 -0.38477,0.0156 c -16.0534,0.6733 -36.80158,7.70824 -59.49804,20.54101 -22.69647,12.83278 -47.01733,31.62825 -68.22266,56.50586 -16.29608,19.1182 -38.67078,45.58604 -51.98828,87.92774 -13.18294,41.91385 -17.44408,99.20642 -0.49609,180.41015 -24.04403,15.93784 -40.76227,40.32276 -42.90625,71.57617 -3.25784,47.49021 6.36411,104.86028 39.99609,154.59961 33.63198,49.73934 91.44413,91.23324 181.97266,106.48243 l 1.52734,0.25781 1.52734,-0.25781 C 592.05587,825.53597 649.86802,784.04207 683.5,734.30273 c 33.63198,-49.73933 43.25393,-107.1094 39.99609,-154.59961 -2.14398,-31.25341 -18.86222,-55.63833 -42.90625,-71.57617 16.94799,-81.20373 12.68685,-138.4963 -0.49609,-180.41015 -13.3175,-42.3417 -35.6922,-68.80954 -51.98828,-87.92774 -21.20533,-24.87761 -45.52619,-43.67308 -68.22266,-56.50586 -22.69646,-12.83277 -43.44464,-19.86771 -59.49804,-20.54101 z m 0,18.44531 c 11.01263,0.56211 30.15105,6.42789 50.83203,18.1211 20.8884,11.81048 43.61588,29.36135 63.27734,52.42773 16.25599,19.07116 36.2182,42.65932 48.43946,81.51563 11.80201,37.52333 16.16531,89.76821 1.08984,165.54297 -8.04796,-3.60825 -16.59392,-6.45477 -25.48437,-8.43555 -43.34687,-9.6576 -95.30231,-0.74702 -138.1543,30.21875 -42.85199,-30.96577 -94.80743,-39.87635 -138.1543,-30.21875 -8.89045,1.98078 -17.43641,4.8273 -25.48437,8.43555 -15.07547,-75.77476 -10.71217,-128.01964 1.08984,-165.54297 12.22126,-38.85631 32.18347,-62.44447 48.43945,-81.51563 19.66147,-23.06638 42.38895,-40.61725 63.27735,-52.42773 20.68098,-11.69321 39.8194,-17.55899 50.83203,-18.1211 z M 397.08984,505.06445 c 32.4773,0.22414 67.7098,11.01002 97.23633,34.16016 l 5.67383,4.44922 5.67383,-4.44922 c 39.36871,-30.86685 88.88163,-39.75267 128.48242,-30.92969 39.60079,8.82298 68.32987,33.85669 70.99219,72.66602 3.01801,43.99413 -6.03202,97.41196 -36.88477,143.04101 C 637.59717,769.35556 585.52265,807.59673 500,822.35742 414.47735,807.59673 362.40283,769.35556 331.73633,724.00195 300.88358,678.3729 291.83355,624.95507 294.85156,580.96094 c 2.66232,-38.80933 31.3914,-63.84304 70.99219,-72.66602 9.9002,-2.20574 20.42033,-3.30518 31.24609,-3.23047 z"
     id="path27" />
  <path
     style="display:inline;fill:none;stroke:#000000;stroke-width:18.391;stroke-dasharray:none;stroke-opacity:1"
     d="M 645.16061,276.48494 C 535.6825,293.84826 529.34361,390.65899 537.78914,507.5907"
     id="path28"
     sodipodi:nodetypes="cc"
     inkscape:label="brow2" />
  <path
     style="display:inline;fill:none;stroke:#000000;stroke-width:18.391;stroke-dasharray:none;stroke-opacity:1"
     d="m 511.31286,173.46716 c -2.92261,58.64048 -15.19053,202.90302 27.24768,216.78293"
     id="path29"
     sodipodi:nodetypes="cc"
     inkscape:label="brow1" />
  <g
     id="g34"
     inkscape:label="eyes"
     style="display:inline;fill:#ffffff;fill-opacity:1"
     transform="matrix(0.91954484,0,0,0.91954484,42.350792,40.382462)">
    <ellipse
       style="fill:#ffffff;fill-opacity:1;stroke:#000000;stroke-width:20;stroke-dasharray:none;stroke-opacity:1"
       id="path26"
       ry="70.973541"
       rx="49.944344"
       cy="400.28342"
       cx="616.25519"
       inkscape:label="eye2" />
    <ellipse
       style="fill:#ffffff;fill-opacity:1;stroke:#000000;stroke-width:20;stroke-dasharray:none;stroke-opacity:1"
       id="ellipse31"
       ry="70.973541"
       rx="49.944344"
       cy="400.28342"
       cx="-379.12686"
       transform="scale(-1,1)"
       inkscape:label="eye1" />
  </g>
  <path
     style="display:inline;fill:none;stroke:#000000;stroke-width:18.391;stroke-dasharray:none;stroke-opacity:1"
     d="m 354.83939,276.48494 c 109.47811,17.36332 115.817,114.17405 107.37147,231.10576"
     id="path33"
     sodipodi:nodetypes="cc" />
  <path
     style="display:inline;fill:none;stroke:#000000;stroke-width:18.391;stroke-dasharray:none;stroke-opacity:1"
     d="m 488.68714,173.46716 c 2.92261,58.64048 15.19053,202.90302 -27.24768,216.78293"
     id="path34"
     sodipodi:nodetypes="cc" />
  <metadata
     id="metadata34">
    <rdf:RDF>
      <cc:Work
         rdf:about="">
        <dc:title>MSMD / NWOR Glyph Template with Samples</dc:title>
      </cc:Work>
    </rdf:RDF>
  </metadata>
</svg>
